<!DOCTYPE svg PUBLIC "-//W3C//DTD SVG 1.1//EN" "http://www.w3.org/Graphics/SVG/1.1/DTD/svg11.dtd">

<!-- Uploaded to: SVG Repo, www.svgrepo.com, Transformed by: SVG Repo Mixer Tools -->
<svg fill="#00ffbf" version="1.1" id="Capa_1" xmlns="http://www.w3.org/2000/svg" xmlns:xlink="http://www.w3.org/1999/xlink" width="800px" height="800px" viewBox="-90.29 -90.29 1083.44 1083.44" xml:space="preserve" stroke="#00ffbf" transform="rotate(0)">

<g id="SVGRepo_bgCarrier" stroke-width="0" transform="translate(117.37180000000001,117.37180000000001), scale(0.74)">

<path transform="translate(-90.29, -90.29), scale(33.8575)" d="M16,31.17778367549181C18.476537156208686,31.640255800303912,18.946747558488283,27.03217687080358,21.133615005720376,25.781286179916876C23.203032650065555,24.59757691114319,26.160459052437545,25.786256605967033,28.024375457260614,24.299827106952925C29.917981736475003,22.789720631330265,31.85838292269369,20.133623618011303,31.099843922242307,17.83345299538526C30.20411549560239,15.11727332422512,25.61807368515759,15.383629628707036,24.254883920041635,12.869335476345872C23.164264624524126,10.857775686694225,26.17689464375621,7.911908650663644,24.750543656549105,6.122678062843336C23.43779781691193,4.4759550392824865,20.609539184597356,6.0833064475119665,18.538925659217675,5.699173678375011C16.61633343187816,5.342501287725148,14.984738431709003,3.973600053432792,13.029506322778268,3.9482334004317803C10.83425261604687,3.9197527720841348,7.863123104375152,3.660482813533688,6.7386349418961835,5.546079895508969C5.46054622814802,7.689241939861883,8.235655777037584,10.417667056853631,7.715946040088477,12.858272739442626C7.309871122411895,14.76523864979149,4.265223618348462,15.482979693598653,4.207643903282877,17.4318512641265C4.152484316791377,19.298809963607905,6.04078543485334,20.675214955054024,7.448732525988985,21.90251375897827C8.680356191568876,22.976112519306522,10.675367154301421,22.833862933028264,11.782848653341208,24.035110568230678C13.68461227176503,26.09788908988211,13.242011001635614,30.66275282724295,16,31.17778367549181" fill="#000000" strokewidth="0"/>

</g>

<g id="SVGRepo_tracerCarrier" stroke-linecap="round" stroke-linejoin="round" stroke="#CCCCCC" stroke-width="16.25148"/>

<g id="SVGRepo_iconCarrier"> <g> <g> <path d="M671.504,577.829l110.485-432.609H902.86v-68H729.174L703.128,179.2L0,178.697l74.753,399.129h596.751V577.829z M685.766,247.188l-67.077,262.64H131.199L81.928,246.756L685.766,247.188z"/> <path d="M578.418,825.641c59.961,0,108.743-48.783,108.743-108.744s-48.782-108.742-108.743-108.742H168.717 c-59.961,0-108.744,48.781-108.744,108.742s48.782,108.744,108.744,108.744c59.962,0,108.743-48.783,108.743-108.744 c0-14.4-2.821-28.152-7.927-40.742h208.069c-5.107,12.59-7.928,26.342-7.928,40.742 C469.675,776.858,518.457,825.641,578.418,825.641z M209.46,716.897c0,22.467-18.277,40.744-40.743,40.744 c-22.466,0-40.744-18.277-40.744-40.744c0-22.465,18.277-40.742,40.744-40.742C191.183,676.155,209.46,694.432,209.46,716.897z M619.162,716.897c0,22.467-18.277,40.744-40.743,40.744s-40.743-18.277-40.743-40.744c0-22.465,18.277-40.742,40.743-40.742 S619.162,694.432,619.162,716.897z"/> </g> </g> </g>

</svg>